<svg width="30" height="30" viewBox="0 0 30 30" fill="none" xmlns="http://www.w3.org/2000/svg">
<path d="M10.6247 29.5365C16.6304 27.1189 22.1675 28.2179 25.0611 27.0537C27.9546 25.8894 33.2776 21.9664 27.2351 10.1607C21.1926 -1.64494 12.1306 -0.0870022 8.94596 1.19396C-5.95887 7.19324 -0.0123314 33.8175 10.6247 29.5365Z" fill="#F0EDED"/>
<path d="M3.72994 29.5691C3.47638 29.5691 3.22852 29.4947 3.0177 29.3553C2.80687 29.216 2.64256 29.0179 2.54552 28.7862C2.44849 28.5545 2.4231 28.2995 2.47257 28.0535C2.52204 27.8076 2.64414 27.5816 2.82343 27.4043C3.00272 27.2269 3.23115 27.1061 3.47983 27.0572C3.72852 27.0083 3.98628 27.0334 4.22054 27.1294C4.45479 27.2253 4.65501 27.3879 4.79588 27.5964C4.93675 27.805 5.01194 28.0501 5.01194 28.3009C5.01141 28.6371 4.87617 28.9594 4.63586 29.1971C4.39556 29.4348 4.06978 29.5685 3.72994 29.5691ZM3.72994 27.8776C3.64549 27.8776 3.56293 27.9024 3.49271 27.9488C3.42249 27.9952 3.36776 28.0611 3.33544 28.1383C3.30312 28.2155 3.29467 28.3004 3.31114 28.3824C3.32762 28.4643 3.36829 28.5395 3.428 28.5986C3.48772 28.6577 3.5638 28.6979 3.64663 28.7142C3.72946 28.7305 3.81532 28.7221 3.89334 28.6902C3.97137 28.6582 4.03806 28.6041 4.08498 28.5346C4.13189 28.4652 4.15694 28.3835 4.15694 28.3C4.15641 28.1881 4.11126 28.081 4.03129 28.0019C3.95133 27.9228 3.84302 27.8781 3.72994 27.8776Z" fill="#A4AFC1"/>
<path d="M14.9959 0H15.8509V1.69147H14.9959V0Z" fill="#A4AFC1"/>
<path d="M14.9959 4.86279H15.8509V6.55426H14.9959V4.86279Z" fill="#A4AFC1"/>
<path d="M12.004 2.74878H13.714V3.59451H12.004V2.74878Z" fill="#A4AFC1"/>
<path d="M16.9199 2.74878H18.6299V3.59451H16.9199V2.74878Z" fill="#A4AFC1"/>
<g clip-path="url(#clip0_345_7465)">
<path d="M23.6146 12.4394C23.1538 12.4394 22.7813 12.0701 22.7813 11.6151V7.70788C22.7813 7.27347 22.4238 6.91984 21.9855 6.91984H18.0355C17.5746 6.91984 17.2021 6.55056 17.2021 6.09554C17.2021 5.64053 17.5746 5.27124 18.0355 5.27124H21.9855C23.3438 5.27124 24.448 6.36426 24.448 7.70788V11.6151C24.448 12.0701 24.0755 12.4394 23.6146 12.4394Z" fill="#333333"/>
<path d="M5.28127 12.4394C4.82044 12.4394 4.44794 12.0701 4.44794 11.6151V7.70788C4.44794 6.36427 5.5521 5.27124 6.91044 5.27124H10.8604C11.3213 5.27124 11.6938 5.64053 11.6938 6.09554C11.6938 6.55056 11.3213 6.91985 10.8604 6.91985H6.91044C6.4721 6.91985 6.1146 7.27347 6.1146 7.70788V11.6151C6.1146 12.0701 5.7421 12.4394 5.28127 12.4394Z" fill="#333333"/>
<path d="M21.9855 25.0545H18.0355C17.5746 25.0545 17.2021 24.6852 17.2021 24.2302C17.2021 23.7752 17.5746 23.4059 18.0355 23.4059H21.9855C22.4238 23.4059 22.7813 23.0523 22.7813 22.6178V18.7107C22.7813 18.2556 23.1538 17.8864 23.6146 17.8864C24.0755 17.8864 24.448 18.2556 24.448 18.7107V22.6178C24.448 23.9615 23.3438 25.0545 21.9855 25.0545Z" fill="#333333"/>
<path d="M10.8604 25.0545H6.91044C5.5521 25.0545 4.44794 23.9615 4.44794 22.6178V18.7107C4.44794 18.2556 4.82044 17.8864 5.28127 17.8864C5.74211 17.8864 6.11461 18.2556 6.11461 18.7107V22.6178C6.11461 23.0523 6.47211 23.4059 6.91044 23.4059H10.8604C11.3213 23.4059 11.6938 23.7752 11.6938 24.2302C11.6938 24.6852 11.3213 25.0545 10.8604 25.0545Z" fill="#333333"/>
<path d="M12.3463 14.4696H8.19793C7.73709 14.4696 7.36459 14.1003 7.36459 13.6453V8.98055C7.36459 8.52554 7.73709 8.15625 8.19793 8.15625H12.3463C12.8071 8.15625 13.1796 8.52554 13.1796 8.98055V13.6453C13.1796 14.1003 12.8063 14.4696 12.3463 14.4696ZM9.03126 12.821H11.5129V9.80486H9.03126V12.821Z" fill="#333333"/>
<path d="M20.6979 22.1694H16.7396C16.2788 22.1694 15.9063 21.8001 15.9063 21.3451V18.7222C15.9063 18.2672 16.2788 17.8979 16.7396 17.8979C17.2004 17.8979 17.5729 18.2672 17.5729 18.7222V20.5208H19.8646V18.0479H18.8796C18.4188 18.0479 18.0463 17.6786 18.0463 17.2236C18.0463 16.7686 18.4188 16.3993 18.8796 16.3993H20.6979C21.1588 16.3993 21.5313 16.7686 21.5313 17.2236V21.3451C21.5313 21.8001 21.1588 22.1694 20.6979 22.1694Z" fill="#333333"/>
<path d="M20.698 13.1771H17.2888C16.8279 13.1771 16.4554 12.8078 16.4554 12.3528V8.98055C16.4554 8.52554 16.8279 8.15625 17.2888 8.15625H20.698C21.1588 8.15625 21.5313 8.52554 21.5313 8.98055V12.3528C21.5313 12.8078 21.1588 13.1771 20.698 13.1771ZM18.1221 11.5285H19.8646V9.80486H18.1221V11.5285Z" fill="#333333"/>
<path d="M14.8463 16.9236H8.19793C7.73709 16.9236 7.36459 16.5543 7.36459 16.0993C7.36459 15.6443 7.73709 15.275 8.19793 15.275H14.0129V9.72994C14.0129 9.27493 14.3854 8.90564 14.8463 8.90564C15.3071 8.90564 15.6796 9.27493 15.6796 9.72994V16.0993C15.6796 16.5543 15.3063 16.9236 14.8463 16.9236Z" fill="#333333"/>
<path d="M17.1563 16.7176C16.6954 16.7176 16.3229 16.3483 16.3229 15.8933V14.7697C16.3229 14.3147 16.6954 13.9454 17.1563 13.9454H20.9063C21.3671 13.9454 21.7396 14.3147 21.7396 14.7697C21.7396 15.2248 21.3671 15.594 20.9063 15.594H17.9896V15.8933C17.9896 16.3483 17.6171 16.7176 17.1563 16.7176Z" fill="#333333"/>
<path d="M14.4663 21.0987C14.0054 21.0987 13.6329 20.7294 13.6329 20.2744V18.4016C13.6329 17.9466 14.0054 17.5773 14.4663 17.5773C14.9271 17.5773 15.2996 17.9466 15.2996 18.4016V20.2744C15.2996 20.7294 14.9271 21.0987 14.4663 21.0987Z" fill="#333333"/>
<path d="M12.1563 22.1694H8.19793C7.73709 22.1694 7.36459 21.8002 7.36459 21.3451V18.348C7.36459 17.893 7.73709 17.5237 8.19793 17.5237H12.1563C12.6171 17.5237 12.9896 17.893 12.9896 18.348V21.3451C12.9896 21.8002 12.6171 22.1694 12.1563 22.1694ZM9.03126 20.5208H11.3229V19.1723H9.03126V20.5208Z" fill="#333333"/>
</g>
<defs>
<clipPath id="clip0_345_7465">
<rect width="20" height="19.7833" fill="white" transform="translate(4.44794 5.27124)"/>
</clipPath>
</defs>
</svg>
