<svg xmlns="http://www.w3.org/2000/svg" xmlns:xlink="http://www.w3.org/1999/xlink" width="20" height="20" viewBox="0 0 20 20"><defs><clipPath id="a"><rect width="20" height="20" transform="translate(1585 592)" fill="#888" stroke="#707070" stroke-width="1"/></clipPath></defs><g transform="translate(-1585 -592)" clip-path="url(#a)"><g transform="translate(1585 592.417)"><path d="M7.292,14.677v3.865a.625.625,0,0,0,1.128.37l2.261-3.077Z" fill="#888"/><path d="M19.737.116a.625.625,0,0,0-.652-.045L.336,9.862a.625.625,0,0,0,.087,1.146L5.635,12.79,16.736,3.3,8.146,13.647l8.736,2.986a.639.639,0,0,0,.2.033.624.624,0,0,0,.618-.532L19.993.717a.626.626,0,0,0-.256-.6Z" fill="#888"/></g></g></svg>