<svg width="45" height="40" viewBox="0 0 45 40" fill="none" xmlns="http://www.w3.org/2000/svg">
<path d="M12.2695 14.2422C12.2695 15.2578 12.0234 16.1406 11.5312 16.8906C11.0391 17.6406 10.3203 18.2188 9.375 18.625C8.4375 19.0312 7.29688 19.2344 5.95312 19.2344C5.35938 19.2344 4.77734 19.1953 4.20703 19.1172C3.64453 19.0391 3.10156 18.9258 2.57812 18.7773C2.0625 18.6211 1.57031 18.4297 1.10156 18.2031V14.8281C1.91406 15.1875 2.75781 15.5117 3.63281 15.8008C4.50781 16.0898 5.375 16.2344 6.23438 16.2344C6.82812 16.2344 7.30469 16.1562 7.66406 16C8.03125 15.8438 8.29688 15.6289 8.46094 15.3555C8.625 15.082 8.70703 14.7695 8.70703 14.418C8.70703 13.9883 8.5625 13.6211 8.27344 13.3164C7.98438 13.0117 7.58594 12.7266 7.07812 12.4609C6.57812 12.1953 6.01172 11.9102 5.37891 11.6055C4.98047 11.418 4.54688 11.1914 4.07812 10.9258C3.60938 10.6523 3.16406 10.3203 2.74219 9.92969C2.32031 9.53906 1.97266 9.06641 1.69922 8.51172C1.43359 7.94922 1.30078 7.27734 1.30078 6.49609C1.30078 5.47266 1.53516 4.59766 2.00391 3.87109C2.47266 3.14453 3.14062 2.58984 4.00781 2.20703C4.88281 1.81641 5.91406 1.62109 7.10156 1.62109C7.99219 1.62109 8.83984 1.72656 9.64453 1.9375C10.457 2.14062 11.3047 2.4375 12.1875 2.82812L11.0156 5.65234C10.2266 5.33203 9.51953 5.08594 8.89453 4.91406C8.26953 4.73438 7.63281 4.64453 6.98438 4.64453C6.53125 4.64453 6.14453 4.71875 5.82422 4.86719C5.50391 5.00781 5.26172 5.21094 5.09766 5.47656C4.93359 5.73438 4.85156 6.03516 4.85156 6.37891C4.85156 6.78516 4.96875 7.12891 5.20312 7.41016C5.44531 7.68359 5.80469 7.94922 6.28125 8.20703C6.76562 8.46484 7.36719 8.76562 8.08594 9.10938C8.96094 9.52344 9.70703 9.95703 10.3242 10.4102C10.9492 10.8555 11.4297 11.3828 11.7656 11.9922C12.1016 12.5938 12.2695 13.3438 12.2695 14.2422ZM29.1562 19H25.0312L20.543 11.7812L19.0078 12.8828V19H15.375V1.86719H19.0078V9.70703C19.25 9.37109 19.4883 9.03516 19.7227 8.69922C19.957 8.36328 20.1953 8.02734 20.4375 7.69141L25.0781 1.86719H29.1094L23.1328 9.44922L29.1562 19ZM36.6445 8.92188L40.2188 1.86719H44.1328L38.4492 12.332V19H34.8398V12.4492L29.1562 1.86719H33.0938L36.6445 8.92188Z" fill="#39A2DD"/>
<path d="M4.99219 39L0 25.8984H3.73828L6.26953 33.3633C6.41016 33.8008 6.51953 34.2617 6.59766 34.7461C6.68359 35.2305 6.74219 35.6641 6.77344 36.0469H6.86719C6.89062 35.6328 6.94531 35.1914 7.03125 34.7227C7.125 34.2539 7.24609 33.8008 7.39453 33.3633L9.91406 25.8984H13.6523L8.66016 39H4.99219ZM19.1133 25.8984V39H15.5391V25.8984H19.1133ZM17.332 20.7656C17.8633 20.7656 18.3203 20.8906 18.7031 21.1406C19.0859 21.3828 19.2773 21.8398 19.2773 22.5117C19.2773 23.1758 19.0859 23.6367 18.7031 23.8945C18.3203 24.1445 17.8633 24.2695 17.332 24.2695C16.793 24.2695 16.332 24.1445 15.9492 23.8945C15.5742 23.6367 15.3867 23.1758 15.3867 22.5117C15.3867 21.8398 15.5742 21.3828 15.9492 21.1406C16.332 20.8906 16.793 20.7656 17.332 20.7656ZM30.3164 25.6523C31.7148 25.6523 32.8398 26.0352 33.6914 26.8008C34.543 27.5586 34.9688 28.7773 34.9688 30.457V39H31.3945V31.3477C31.3945 30.4102 31.2227 29.7031 30.8789 29.2266C30.543 28.75 30.0117 28.5117 29.2852 28.5117C28.1914 28.5117 27.4453 28.8828 27.0469 29.625C26.6484 30.3672 26.4492 31.4375 26.4492 32.8359V39H22.875V25.8984H25.6055L26.0859 27.5742H26.2852C26.5664 27.1211 26.9141 26.7539 27.3281 26.4727C27.75 26.1914 28.2148 25.9844 28.7227 25.8516C29.2383 25.7188 29.7695 25.6523 30.3164 25.6523Z" fill="#A4AFC1"/>
</svg>
