<svg width="137" height="54" viewBox="0 0 137 54" fill="none" xmlns="http://www.w3.org/2000/svg">
<path d="M128.613 34.5241C130.195 34.3114 131.717 34.0616 132.789 33.79C135 33 133.739 24.2181 133.468 22.7063C133.196 21.1944 132.654 20.6447 128.855 18.858C125.056 17.0713 122.343 16.5215 119.222 15.6969C116.102 14.8722 113.524 14.4599 108.775 13.9101C104.027 13.3604 93.5 13 91.9517 12.5357C90.594 12.1287 85.575 9.64951 83.9469 8.68743C82.3188 7.72535 76.5 5 73.9071 4.15192C71.4123 3.33596 66.445 2.5026 63.0532 2.22772C59.6613 1.95284 58.3046 1.95284 55.1841 2.09028C52.0636 2.22772 50.4355 2.36516 48.2647 2.64004C46.094 2.91492 43.6518 3.32723 40.8027 4.01443C37.9535 4.70163 36.0541 5.25139 31.1698 6.90067C26.2856 8.54994 25.0645 8.96226 20.316 10.749C15.5674 12.5357 8.56831 12.1769 7.01993 12.6731C6 13 5.04629 13.8185 4.84915 15.147C4.5 17.5 3.62809 21.3318 2.94972 22.2939C2.27134 23.256 2 24.5 2 25.5C2 27.2867 2 27.4005 2 28.5C2 30 2.5 33 4.98482 33.9763L8.5 35" stroke="#39A2DD" stroke-width="4" stroke-linecap="round"/>
<path d="M28.3818 35.2598C28.3818 36.6986 28.0332 37.9492 27.3359 39.0117C26.6387 40.0742 25.6204 40.8932 24.2812 41.4688C22.9531 42.0443 21.3372 42.332 19.4336 42.332C18.5924 42.332 17.7679 42.2767 16.96 42.166C16.1631 42.0553 15.3939 41.8949 14.6523 41.6846C13.9219 41.4632 13.2246 41.1921 12.5605 40.8711V36.0898C13.7116 36.599 14.9069 37.0583 16.1465 37.4678C17.3861 37.8773 18.6146 38.082 19.832 38.082C20.6732 38.082 21.3483 37.9714 21.8574 37.75C22.3776 37.5286 22.7539 37.2243 22.9863 36.8369C23.2188 36.4495 23.335 36.0068 23.335 35.5088C23.335 34.9001 23.1302 34.3799 22.7207 33.9482C22.3112 33.5166 21.7467 33.1126 21.0273 32.7363C20.319 32.36 19.5166 31.9561 18.6201 31.5244C18.0557 31.2588 17.4414 30.9378 16.7773 30.5615C16.1133 30.1742 15.4824 29.7038 14.8848 29.1504C14.2871 28.597 13.7946 27.9274 13.4072 27.1416C13.0309 26.3447 12.8428 25.3929 12.8428 24.2861C12.8428 22.8363 13.1748 21.5967 13.8389 20.5674C14.5029 19.5381 15.4492 18.7523 16.6777 18.21C17.9173 17.6566 19.3783 17.3799 21.0605 17.3799C22.3223 17.3799 23.5231 17.5293 24.6631 17.8281C25.8141 18.1159 27.015 18.5365 28.2656 19.0898L26.6055 23.0908C25.4876 22.637 24.486 22.2884 23.6006 22.0449C22.7152 21.7904 21.8132 21.6631 20.8945 21.6631C20.2526 21.6631 19.7048 21.7682 19.251 21.9785C18.7972 22.1777 18.4541 22.4655 18.2217 22.8418C17.9893 23.207 17.873 23.6331 17.873 24.1201C17.873 24.6956 18.0391 25.1826 18.3711 25.5811C18.7142 25.9684 19.2233 26.3447 19.8984 26.71C20.5846 27.0752 21.4368 27.5013 22.4551 27.9883C23.6947 28.5749 24.7516 29.1891 25.626 29.8311C26.5114 30.4619 27.1921 31.209 27.668 32.0723C28.1439 32.9245 28.3818 33.987 28.3818 35.2598ZM52.3047 42H46.4609L40.1025 31.7734L37.9277 33.334V42H32.7812V17.7285H37.9277V28.835C38.2708 28.359 38.6084 27.8831 38.9404 27.4072C39.2725 26.9313 39.61 26.4554 39.9531 25.9795L46.5273 17.7285H52.2383L43.7715 28.4697L52.3047 42ZM62.9131 27.7227L67.9766 17.7285H73.5215L65.4697 32.5537V42H60.3564V32.7197L52.3047 17.7285H57.8828L62.9131 27.7227Z" fill="#39A2DD"/>
<path d="M80.5938 42L73.5215 23.4395H78.8174L82.4033 34.0146C82.6025 34.6344 82.7575 35.2874 82.8682 35.9736C82.9899 36.6598 83.0729 37.2741 83.1172 37.8164H83.25C83.2832 37.2298 83.3607 36.6045 83.4824 35.9404C83.6152 35.2764 83.7868 34.6344 83.9971 34.0146L87.5664 23.4395H92.8623L85.79 42H80.5938ZM100.599 23.4395V42H95.5352V23.4395H100.599ZM98.0752 16.168C98.8278 16.168 99.4753 16.3451 100.018 16.6992C100.56 17.0423 100.831 17.6898 100.831 18.6416C100.831 19.5824 100.56 20.2354 100.018 20.6006C99.4753 20.9548 98.8278 21.1318 98.0752 21.1318C97.3115 21.1318 96.6585 20.9548 96.1162 20.6006C95.585 20.2354 95.3193 19.5824 95.3193 18.6416C95.3193 17.6898 95.585 17.0423 96.1162 16.6992C96.6585 16.3451 97.3115 16.168 98.0752 16.168ZM116.47 23.0908C118.451 23.0908 120.045 23.6331 121.251 24.7178C122.457 25.7913 123.061 27.5179 123.061 29.8975V42H117.997V31.1592C117.997 29.8311 117.754 28.8294 117.267 28.1543C116.791 27.4792 116.038 27.1416 115.009 27.1416C113.459 27.1416 112.402 27.6673 111.838 28.7188C111.273 29.7702 110.991 31.2865 110.991 33.2676V42H105.928V23.4395H109.796L110.477 25.8135H110.759C111.157 25.1715 111.65 24.6514 112.236 24.2529C112.834 23.8545 113.493 23.5612 114.212 23.373C114.942 23.1849 115.695 23.0908 116.47 23.0908Z" fill="#A4AFC1"/>
<path d="M12.6289 52V47.0029H16.5835V52H15.5273V47.8848H13.6885V52H12.6289ZM22.3804 49.4946C22.3804 49.8797 22.3325 50.2306 22.2368 50.5474C22.1411 50.8618 21.9953 51.133 21.7993 51.3608C21.6056 51.5887 21.3595 51.7642 21.061 51.8872C20.7625 52.008 20.4093 52.0684 20.0015 52.0684C19.5936 52.0684 19.2404 52.008 18.9419 51.8872C18.6434 51.7642 18.3962 51.5887 18.2002 51.3608C18.0065 51.133 17.8618 50.8607 17.7661 50.5439C17.6704 50.2272 17.6226 49.8752 17.6226 49.4878C17.6226 48.9705 17.7069 48.5205 17.8755 48.1377C18.0464 47.7526 18.3084 47.4541 18.6616 47.2422C19.0148 47.0303 19.4637 46.9243 20.0083 46.9243C20.5506 46.9243 20.9961 47.0303 21.3447 47.2422C21.6956 47.4541 21.9554 47.7526 22.124 48.1377C22.2949 48.5228 22.3804 48.9751 22.3804 49.4946ZM18.7334 49.4946C18.7334 49.8433 18.7767 50.144 18.8633 50.397C18.9521 50.6476 19.09 50.8413 19.2769 50.978C19.4637 51.1125 19.7052 51.1797 20.0015 51.1797C20.3022 51.1797 20.5461 51.1125 20.7329 50.978C20.9198 50.8413 21.0553 50.6476 21.1396 50.397C21.2262 50.144 21.2695 49.8433 21.2695 49.4946C21.2695 48.9705 21.1715 48.5581 20.9756 48.2573C20.7796 47.9565 20.4572 47.8062 20.0083 47.8062C19.7098 47.8062 19.466 47.8745 19.2769 48.0112C19.09 48.1457 18.9521 48.3394 18.8633 48.5923C18.7767 48.8429 18.7334 49.1437 18.7334 49.4946ZM25.5317 52L24.3286 48.0796H24.2979C24.3024 48.173 24.3092 48.3143 24.3184 48.5034C24.3298 48.6903 24.34 48.8896 24.3491 49.1016C24.3582 49.3135 24.3628 49.5049 24.3628 49.6758V52H23.416V47.0029H24.8584L26.041 50.8242H26.0615L27.3159 47.0029H28.7583V52H27.7705V49.6348C27.7705 49.4775 27.7728 49.2964 27.7773 49.0913C27.7842 48.8862 27.7922 48.6914 27.8013 48.5068C27.8104 48.32 27.8172 48.1799 27.8218 48.0864H27.791L26.5024 52H25.5317ZM34.5552 49.4946C34.5552 49.8797 34.5073 50.2306 34.4116 50.5474C34.3159 50.8618 34.1701 51.133 33.9741 51.3608C33.7804 51.5887 33.5343 51.7642 33.2358 51.8872C32.9373 52.008 32.5841 52.0684 32.1763 52.0684C31.7684 52.0684 31.4152 52.008 31.1167 51.8872C30.8182 51.7642 30.571 51.5887 30.375 51.3608C30.1813 51.133 30.0366 50.8607 29.9409 50.5439C29.8452 50.2272 29.7974 49.8752 29.7974 49.4878C29.7974 48.9705 29.8817 48.5205 30.0503 48.1377C30.2212 47.7526 30.4832 47.4541 30.8364 47.2422C31.1896 47.0303 31.6385 46.9243 32.1831 46.9243C32.7254 46.9243 33.1709 47.0303 33.5195 47.2422C33.8704 47.4541 34.1302 47.7526 34.2988 48.1377C34.4697 48.5228 34.5552 48.9751 34.5552 49.4946ZM30.9082 49.4946C30.9082 49.8433 30.9515 50.144 31.0381 50.397C31.127 50.6476 31.2648 50.8413 31.4517 50.978C31.6385 51.1125 31.88 51.1797 32.1763 51.1797C32.4771 51.1797 32.7209 51.1125 32.9077 50.978C33.0946 50.8413 33.2301 50.6476 33.3145 50.397C33.401 50.144 33.4443 49.8433 33.4443 49.4946C33.4443 48.9705 33.3464 48.5581 33.1504 48.2573C32.9544 47.9565 32.632 47.8062 32.1831 47.8062C31.8846 47.8062 31.6408 47.8745 31.4517 48.0112C31.2648 48.1457 31.127 48.3394 31.0381 48.5923C30.9515 48.8429 30.9082 49.1437 30.9082 49.4946ZM36.7393 49.4023L35.061 47.0029H36.1514L37.7681 49.4229V47.0029H38.7559V49.4229L40.3726 47.0029H41.4663L39.7847 49.4023L41.562 52H40.4272L38.7559 49.4673V52H37.7681V49.4673L36.0967 52H34.9619L36.7393 49.4023ZM45.0723 52H42.1943V47.0029H45.0723V47.8711H43.2539V48.9683H44.9458V49.8364H43.2539V51.125H45.0723V52ZM48.0459 52H46.9863V47.8848H45.6294V47.0029H49.4028V47.8848H48.0459V52ZM51.9902 47.0029H53.5454C54.2108 47.0029 54.7144 47.0964 55.0562 47.2832C55.3979 47.4701 55.5688 47.7982 55.5688 48.2676C55.5688 48.4567 55.5381 48.6276 55.4766 48.7803C55.4173 48.9329 55.3307 49.0583 55.2168 49.1562C55.1029 49.2542 54.9639 49.318 54.7998 49.3477V49.3818C54.9661 49.416 55.1165 49.4753 55.251 49.5596C55.3854 49.6416 55.4925 49.7624 55.5723 49.9219C55.6543 50.0791 55.6953 50.2887 55.6953 50.5508C55.6953 50.8538 55.6213 51.1136 55.4731 51.3301C55.325 51.5465 55.1131 51.7129 54.8374 51.8291C54.564 51.943 54.2381 52 53.8599 52H51.9902V47.0029ZM53.0498 48.9819H53.665C53.9727 48.9819 54.1857 48.9341 54.3042 48.8384C54.4227 48.7404 54.4819 48.5968 54.4819 48.4077C54.4819 48.2163 54.4113 48.0796 54.27 47.9976C54.131 47.9132 53.91 47.8711 53.6069 47.8711H53.0498V48.9819ZM53.0498 49.8228V51.125H53.7402C54.0592 51.125 54.2814 51.0635 54.4067 50.9404C54.5321 50.8174 54.5947 50.6522 54.5947 50.4448C54.5947 50.3218 54.5674 50.2135 54.5127 50.1201C54.458 50.0267 54.3657 49.9538 54.2358 49.9014C54.1082 49.849 53.9316 49.8228 53.7061 49.8228H53.0498ZM56.6934 52V47.0029H57.7529V48.9204H58.0947C58.5573 48.9204 58.9367 48.9854 59.2329 49.1152C59.5314 49.2451 59.7524 49.4251 59.896 49.6553C60.0396 49.8831 60.1113 50.144 60.1113 50.438C60.1113 50.9325 59.9473 51.3164 59.6191 51.5898C59.2933 51.8633 58.7738 52 58.0605 52H56.6934ZM57.7529 51.1318H58.0298C58.342 51.1318 58.5881 51.0806 58.7681 50.978C58.9481 50.8732 59.0381 50.6932 59.0381 50.438C59.0381 50.2603 58.9971 50.1247 58.915 50.0312C58.833 49.9378 58.7134 49.874 58.5562 49.8398C58.3989 49.8057 58.2075 49.7886 57.9819 49.7886H57.7529V51.1318ZM60.7197 52V47.0029H61.7759V52H60.7197ZM66.1953 47.0029V47.8779H64.0967V52H63.0371V47.0029H66.1953ZM71.5034 49.4946C71.5034 49.8797 71.4556 50.2306 71.3599 50.5474C71.2642 50.8618 71.1183 51.133 70.9224 51.3608C70.7287 51.5887 70.4826 51.7642 70.1841 51.8872C69.8856 52.008 69.5324 52.0684 69.1245 52.0684C68.7166 52.0684 68.3634 52.008 68.0649 51.8872C67.7664 51.7642 67.5192 51.5887 67.3232 51.3608C67.1296 51.133 66.9849 50.8607 66.8892 50.5439C66.7935 50.2272 66.7456 49.8752 66.7456 49.4878C66.7456 48.9705 66.8299 48.5205 66.9985 48.1377C67.1694 47.7526 67.4315 47.4541 67.7847 47.2422C68.1379 47.0303 68.5868 46.9243 69.1313 46.9243C69.6737 46.9243 70.1191 47.0303 70.4678 47.2422C70.8187 47.4541 71.0785 47.7526 71.2471 48.1377C71.418 48.5228 71.5034 48.9751 71.5034 49.4946ZM67.8564 49.4946C67.8564 49.8433 67.8997 50.144 67.9863 50.397C68.0752 50.6476 68.2131 50.8413 68.3999 50.978C68.5868 51.1125 68.8283 51.1797 69.1245 51.1797C69.4253 51.1797 69.6691 51.1125 69.856 50.978C70.0428 50.8413 70.1784 50.6476 70.2627 50.397C70.3493 50.144 70.3926 49.8433 70.3926 49.4946C70.3926 48.9705 70.2946 48.5581 70.0986 48.2573C69.9027 47.9565 69.5802 47.8062 69.1313 47.8062C68.8328 47.8062 68.589 47.8745 68.3999 48.0112C68.2131 48.1457 68.0752 48.3394 67.9863 48.5923C67.8997 48.8429 67.8564 49.1437 67.8564 49.4946ZM76.4526 47.0029V51.1182H77.1191V53.4561H76.0972V52H72.9663V53.4561H71.9443V51.1182H72.3306C72.4604 50.8584 72.5858 50.5838 72.7065 50.2944C72.8273 50.005 72.9401 49.694 73.0449 49.3613C73.1497 49.0286 73.2443 48.6675 73.3286 48.2778C73.4129 47.8882 73.4836 47.4632 73.5405 47.0029H76.4526ZM75.3965 47.8848H74.3813C74.3472 48.1263 74.3005 48.3838 74.2412 48.6572C74.182 48.9307 74.1113 49.2098 74.0293 49.4946C73.9495 49.7772 73.8595 50.0563 73.7593 50.332C73.6613 50.6077 73.5565 50.8698 73.4448 51.1182H75.3965V47.8848ZM81.9863 52H80.9302V49.8433H78.9512V52H77.8916V47.0029H78.9512V48.9614H80.9302V47.0029H81.9863V52ZM87.7866 49.4946C87.7866 49.8797 87.7388 50.2306 87.6431 50.5474C87.5474 50.8618 87.4015 51.133 87.2056 51.3608C87.0119 51.5887 86.7658 51.7642 86.4673 51.8872C86.1688 52.008 85.8156 52.0684 85.4077 52.0684C84.9998 52.0684 84.6466 52.008 84.3481 51.8872C84.0496 51.7642 83.8024 51.5887 83.6064 51.3608C83.4128 51.133 83.2681 50.8607 83.1724 50.5439C83.0767 50.2272 83.0288 49.8752 83.0288 49.4878C83.0288 48.9705 83.1131 48.5205 83.2817 48.1377C83.4526 47.7526 83.7147 47.4541 84.0679 47.2422C84.4211 47.0303 84.87 46.9243 85.4146 46.9243C85.9569 46.9243 86.4023 47.0303 86.751 47.2422C87.1019 47.4541 87.3617 47.7526 87.5303 48.1377C87.7012 48.5228 87.7866 48.9751 87.7866 49.4946ZM84.1396 49.4946C84.1396 49.8433 84.1829 50.144 84.2695 50.397C84.3584 50.6476 84.4963 50.8413 84.6831 50.978C84.87 51.1125 85.1115 51.1797 85.4077 51.1797C85.7085 51.1797 85.9523 51.1125 86.1392 50.978C86.326 50.8413 86.4616 50.6476 86.5459 50.397C86.6325 50.144 86.6758 49.8433 86.6758 49.4946C86.6758 48.9705 86.5778 48.5581 86.3818 48.2573C86.1859 47.9565 85.8634 47.8062 85.4146 47.8062C85.116 47.8062 84.8722 47.8745 84.6831 48.0112C84.4963 48.1457 84.3584 48.3394 84.2695 48.5923C84.1829 48.8429 84.1396 49.1437 84.1396 49.4946ZM90.6406 52V47.0029H94.5952V52H93.5391V47.8848H91.7002V52H90.6406ZM97.4526 47.0029C98.0975 47.0029 98.568 47.1419 98.8643 47.4199C99.1605 47.6956 99.3086 48.0762 99.3086 48.5615C99.3086 48.7803 99.2756 48.9899 99.2095 49.1904C99.1434 49.3887 99.0352 49.5653 98.8848 49.7202C98.7367 49.8752 98.5384 49.9982 98.29 50.0894C98.0417 50.1782 97.7352 50.2227 97.3706 50.2227H96.916V52H95.8564V47.0029H97.4526ZM97.3979 47.8711H96.916V49.3545H97.2646C97.4629 49.3545 97.6349 49.3283 97.7808 49.2759C97.9266 49.2235 98.0394 49.1414 98.1191 49.0298C98.1989 48.9181 98.2388 48.7746 98.2388 48.5991C98.2388 48.353 98.1704 48.1707 98.0337 48.0522C97.897 47.9315 97.6851 47.8711 97.3979 47.8711ZM104.788 49.4946C104.788 49.8797 104.74 50.2306 104.644 50.5474C104.548 50.8618 104.403 51.133 104.207 51.3608C104.013 51.5887 103.767 51.7642 103.468 51.8872C103.17 52.008 102.817 52.0684 102.409 52.0684C102.001 52.0684 101.648 52.008 101.349 51.8872C101.051 51.7642 100.803 51.5887 100.607 51.3608C100.414 51.133 100.269 50.8607 100.173 50.5439C100.078 50.2272 100.03 49.8752 100.03 49.4878C100.03 48.9705 100.114 48.5205 100.283 48.1377C100.454 47.7526 100.716 47.4541 101.069 47.2422C101.422 47.0303 101.871 46.9243 102.416 46.9243C102.958 46.9243 103.403 47.0303 103.752 47.2422C104.103 47.4541 104.363 47.7526 104.531 48.1377C104.702 48.5228 104.788 48.9751 104.788 49.4946ZM101.141 49.4946C101.141 49.8433 101.184 50.144 101.271 50.397C101.359 50.6476 101.497 50.8413 101.684 50.978C101.871 51.1125 102.112 51.1797 102.409 51.1797C102.709 51.1797 102.953 51.1125 103.14 50.978C103.327 50.8413 103.463 50.6476 103.547 50.397C103.633 50.144 103.677 49.8433 103.677 49.4946C103.677 48.9705 103.579 48.5581 103.383 48.2573C103.187 47.9565 102.864 47.8062 102.416 47.8062C102.117 47.8062 101.873 47.8745 101.684 48.0112C101.497 48.1457 101.359 48.3394 101.271 48.5923C101.184 48.8429 101.141 49.1437 101.141 49.4946ZM109.737 47.0029V51.1182H110.403V53.4561H109.381V52H106.25V53.4561H105.229V51.1182H105.615C105.745 50.8584 105.87 50.5838 105.991 50.2944C106.111 50.005 106.224 49.694 106.329 49.3613C106.434 49.0286 106.528 48.6675 106.613 48.2778C106.697 47.8882 106.768 47.4632 106.825 47.0029H109.737ZM108.681 47.8848H107.666C107.631 48.1263 107.585 48.3838 107.525 48.6572C107.466 48.9307 107.396 49.2098 107.313 49.4946C107.234 49.7772 107.144 50.0563 107.043 50.332C106.945 50.6077 106.841 50.8698 106.729 51.1182H108.681V47.8848ZM114.235 52L113.873 50.8105H112.051L111.688 52H110.547L112.311 46.9824H113.606L115.376 52H114.235ZM113.62 49.9219L113.257 48.7598C113.235 48.6823 113.204 48.5832 113.165 48.4624C113.129 48.3394 113.091 48.2152 113.052 48.0898C113.016 47.9622 112.986 47.8517 112.963 47.7583C112.941 47.8517 112.909 47.9679 112.868 48.1069C112.829 48.2437 112.791 48.3735 112.755 48.4966C112.718 48.6196 112.692 48.7074 112.676 48.7598L112.317 49.9219H113.62ZM117.937 52H116.877V47.8848H115.52V47.0029H119.293V47.8848H117.937V52ZM120.062 52V47.0029H121.122V48.9204H121.539C122.008 48.9204 122.394 48.9854 122.694 49.1152C122.997 49.2451 123.221 49.4251 123.364 49.6553C123.51 49.8831 123.583 50.144 123.583 50.438C123.583 50.9325 123.418 51.3164 123.087 51.5898C122.759 51.8633 122.236 52 121.519 52H120.062ZM121.122 51.1318H121.478C121.799 51.1318 122.052 51.0806 122.236 50.978C122.421 50.8732 122.513 50.6932 122.513 50.438C122.513 50.2603 122.468 50.1247 122.376 50.0312C122.288 49.9378 122.159 49.874 121.99 49.8398C121.824 49.8057 121.625 49.7886 121.392 49.7886H121.122V51.1318ZM125.326 50.3423H124.492L124.318 47.0029H125.5L125.326 50.3423ZM124.304 51.5112C124.304 51.297 124.362 51.1466 124.479 51.0601C124.597 50.9735 124.739 50.9302 124.906 50.9302C125.068 50.9302 125.207 50.9735 125.323 51.0601C125.441 51.1466 125.5 51.297 125.5 51.5112C125.5 51.7163 125.441 51.8644 125.323 51.9556C125.207 52.0467 125.068 52.0923 124.906 52.0923C124.739 52.0923 124.597 52.0467 124.479 51.9556C124.362 51.8644 124.304 51.7163 124.304 51.5112Z" fill="#A4AFC1"/>
</svg>
