<svg width="90" height="33" viewBox="0 0 90 33" fill="none" xmlns="http://www.w3.org/2000/svg">
<path d="M84.4458 22.6972C85.4756 22.5618 86.4671 22.4028 87.1653 22.23C88.6047 21.7273 87.7837 16.1388 87.607 15.1767C87.4303 14.2146 87.0769 13.8648 84.6032 12.7278C82.1296 11.5908 80.3627 11.2409 78.3307 10.7162C76.2987 10.1914 74.6202 9.92903 71.5281 9.57918C68.436 9.22933 61.5814 9 60.5732 8.70456C59.6892 8.44551 56.421 6.86787 55.3608 6.25564C54.3007 5.64341 50.5117 3.90909 48.8232 3.36941C47.1987 2.85016 43.9642 2.31983 41.7556 2.14491C39.5469 1.96999 38.6635 1.96999 36.6315 2.05745C34.5996 2.14491 33.5394 2.23237 32.1259 2.4073C30.7124 2.58222 29.1221 2.8446 27.2669 3.28191C25.4116 3.71922 24.1748 4.06907 20.9943 5.11861C17.8139 6.16814 17.0188 6.43053 13.9267 7.56753C10.8346 8.70453 6.27704 8.47621 5.26879 8.79199C4.60465 9 3.98363 9.52088 3.85526 10.3663C3.6279 11.8636 3.06015 14.3021 2.61842 14.9143C2.17669 15.5265 2 16.3182 2 16.9545C2 18.0915 2 18.1639 2 18.8636C2 19.8182 2.32558 21.7273 3.94361 22.3485L6.23256 23" stroke="#F0EDED" stroke-width="3" stroke-linecap="round"/>
<path d="M22.2246 23.0352C22.2246 23.8815 22.0195 24.6172 21.6094 25.2422C21.1992 25.8672 20.6003 26.349 19.8125 26.6875C19.0312 27.026 18.0807 27.1953 16.9609 27.1953C16.4661 27.1953 15.9811 27.1628 15.5059 27.0977C15.0371 27.0326 14.5846 26.9382 14.1484 26.8145C13.7188 26.6842 13.3086 26.5247 12.918 26.3359V23.5234C13.5951 23.8229 14.2982 24.0931 15.0273 24.334C15.7565 24.5749 16.4792 24.6953 17.1953 24.6953C17.6901 24.6953 18.0872 24.6302 18.3867 24.5C18.6927 24.3698 18.9141 24.1908 19.0508 23.9629C19.1875 23.735 19.2559 23.4746 19.2559 23.1816C19.2559 22.8236 19.1354 22.5176 18.8945 22.2637C18.6536 22.0098 18.3216 21.7721 17.8984 21.5508C17.4818 21.3294 17.0098 21.0918 16.4824 20.8379C16.1504 20.6816 15.7891 20.4928 15.3984 20.2715C15.0078 20.0436 14.6367 19.7669 14.2852 19.4414C13.9336 19.1159 13.6439 18.722 13.416 18.2598C13.1947 17.791 13.084 17.2311 13.084 16.5801C13.084 15.7272 13.2793 14.998 13.6699 14.3926C14.0605 13.7871 14.6172 13.3249 15.3398 13.0059C16.069 12.6803 16.9284 12.5176 17.918 12.5176C18.6602 12.5176 19.3665 12.6055 20.0371 12.7812C20.7142 12.9505 21.4206 13.1979 22.1562 13.5234L21.1797 15.877C20.5221 15.61 19.9329 15.4049 19.4121 15.2617C18.8913 15.112 18.3607 15.0371 17.8203 15.0371C17.4427 15.0371 17.1204 15.099 16.8535 15.2227C16.5866 15.3398 16.3848 15.5091 16.248 15.7305C16.1113 15.9453 16.043 16.196 16.043 16.4824C16.043 16.821 16.1406 17.1074 16.3359 17.3418C16.5378 17.5697 16.8372 17.791 17.2344 18.0059C17.638 18.2207 18.1393 18.4714 18.7383 18.7578C19.4674 19.1029 20.0892 19.4642 20.6035 19.8418C21.1243 20.2129 21.5247 20.6523 21.8047 21.1602C22.0846 21.6615 22.2246 22.2865 22.2246 23.0352ZM36.2969 27H32.8594L29.1191 20.9844L27.8398 21.9023V27H24.8125V12.7227H27.8398V19.2559C28.0417 18.9759 28.2402 18.696 28.4355 18.416C28.6309 18.1361 28.8294 17.8561 29.0312 17.5762L32.8984 12.7227H36.2578L31.2773 19.041L36.2969 27ZM42.5371 18.6016L45.5156 12.7227H48.7773L44.041 21.4434V27H41.0332V21.541L36.2969 12.7227H39.5781L42.5371 18.6016ZM52.9375 27L48.7773 16.082H51.8926L54.002 22.3027C54.1191 22.6673 54.2103 23.0514 54.2754 23.4551C54.347 23.8587 54.3958 24.2201 54.4219 24.5391H54.5C54.5195 24.194 54.5651 23.8262 54.6367 23.4355C54.7148 23.0449 54.8158 22.6673 54.9395 22.3027L57.0391 16.082H60.1543L55.9941 27H52.9375ZM64.7051 16.082V27H61.7266V16.082H64.7051ZM63.2207 11.8047C63.6634 11.8047 64.0443 11.9089 64.3633 12.1172C64.6823 12.319 64.8418 12.6999 64.8418 13.2598C64.8418 13.8132 64.6823 14.1973 64.3633 14.4121C64.0443 14.6204 63.6634 14.7246 63.2207 14.7246C62.7715 14.7246 62.3874 14.6204 62.0684 14.4121C61.7559 14.1973 61.5996 13.8132 61.5996 13.2598C61.5996 12.6999 61.7559 12.319 62.0684 12.1172C62.3874 11.9089 62.7715 11.8047 63.2207 11.8047ZM74.041 15.877C75.2064 15.877 76.1439 16.196 76.8535 16.834C77.5632 17.4655 77.918 18.4811 77.918 19.8809V27H74.9395V20.623C74.9395 19.8418 74.7962 19.2526 74.5098 18.8555C74.2298 18.4583 73.7871 18.2598 73.1816 18.2598C72.2702 18.2598 71.6484 18.569 71.3164 19.1875C70.9844 19.806 70.8184 20.6979 70.8184 21.8633V27H67.8398V16.082H70.1152L70.5156 17.4785H70.6816C70.916 17.1009 71.2057 16.7949 71.5508 16.5605C71.9023 16.3262 72.2897 16.1536 72.7129 16.043C73.1426 15.9323 73.5853 15.877 74.041 15.877Z" fill="#F0EDED"/>
</svg>
