<svg xmlns="http://www.w3.org/2000/svg" width="12" height="14" viewBox="0 0 12 14">
    <path id="snowflake" d="M25.481,9.847l-1.393-.821L25.3,8.3a.483.483,0,0,0,.165-.654.463.463,0,0,0-.641-.169l-1.662,1L20.651,7l2.506-1.477,1.663,1a.458.458,0,0,0,.237.066.466.466,0,0,0,.4-.235.483.483,0,0,0-.166-.654l-1.207-.726,1.393-.821a.483.483,0,0,0,.171-.653.463.463,0,0,0-.639-.175l-1.393.821-.013-1.431a.468.468,0,1,0-.936.009l.017,1.971L20.183,6.173V3.217l1.68-.97A.483.483,0,0,0,22.04,1.6a.463.463,0,0,0-.638-.181l-1.22.7V.478a.468.468,0,1,0-.936,0V2.12l-1.22-.7a.463.463,0,0,0-.638.181.483.483,0,0,0,.177.651l1.68.97V6.173L16.741,4.695l.017-1.971a.473.473,0,0,0-.464-.482h0a.473.473,0,0,0-.468.473L15.81,4.146l-1.393-.821a.463.463,0,0,0-.639.175.483.483,0,0,0,.171.653l1.393.821L14.135,5.7a.483.483,0,0,0-.166.654.466.466,0,0,0,.4.235.459.459,0,0,0,.237-.066l1.663-1L18.779,7,16.273,8.478l-1.663-1a.463.463,0,0,0-.641.169.483.483,0,0,0,.165.654l1.207.727-1.393.821a.483.483,0,0,0-.171.653.466.466,0,0,0,.406.239.458.458,0,0,0,.234-.064l1.393-.821.013,1.431a.473.473,0,0,0,.468.473h0a.473.473,0,0,0,.464-.482L16.74,9.305l2.507-1.478v2.955l-1.68.97a.483.483,0,0,0-.177.651.466.466,0,0,0,.408.243.459.459,0,0,0,.23-.062l1.22-.7v1.642a.468.468,0,1,0,.936,0V11.88l1.22.7a.458.458,0,0,0,.23.062.466.466,0,0,0,.408-.243.483.483,0,0,0-.177-.651l-1.68-.97V7.827l2.506,1.478-.018,1.971a.473.473,0,0,0,.464.482h0a.473.473,0,0,0,.468-.473l.013-1.431,1.393.821a.458.458,0,0,0,.234.064.466.466,0,0,0,.406-.239A.483.483,0,0,0,25.481,9.847Z" transform="translate(-13.715)" fill="#2e9eff"/>
</svg>
