<svg xmlns="http://www.w3.org/2000/svg" width="12" height="12" viewBox="0 0 12 12">
    <g id="warning" transform="translate(0 -14.759)">
        <g id="Group_316" data-name="Group 316" transform="translate(0 14.759)">
            <path id="Path_167" data-name="Path 167" d="M11.751,23.941,7.512,15.672a1.708,1.708,0,0,0-3.023,0L.25,23.941a1.868,1.868,0,0,0,1.511,2.818h8.478A1.868,1.868,0,0,0,11.751,23.941ZM6,25.267a.747.747,0,1,1,.7-.746A.727.727,0,0,1,6,25.267Zm.7-2.985a.7.7,0,1,1-1.406,0V18.551a.7.7,0,1,1,1.406,0Z" transform="translate(0 -14.759)" fill="#e3473f"/>
        </g>
    </g>
</svg>
